<svg width="741" height="426" viewBox="0 0 741 426" fill="none" xmlns="http://www.w3.org/2000/svg">
<g clip-path="url(#clip0_8_33)">
<path d="M160.554 378.141C181.837 378.141 199.09 360.878 199.09 339.583C199.09 318.288 181.837 301.025 160.554 301.025C139.271 301.025 122.018 318.288 122.018 339.583C122.018 360.878 139.271 378.141 160.554 378.141Z" fill="#F2F2F2"/>
<path d="M166.82 372.498C188.103 372.498 205.356 355.235 205.356 333.94C205.356 312.646 188.103 295.383 166.82 295.383C145.537 295.383 128.284 312.646 128.284 333.94C128.284 355.235 145.537 372.498 166.82 372.498Z" fill="#35A29F"/>
<path d="M674.652 291.277H197.855V292.579H674.652V291.277Z" fill="#3F3D56"/>
<path d="M444.789 12.1395H275.555V8.64951H198.819V12.1395H28.8876C27.3843 12.1395 25.8957 12.4357 24.5069 13.0114C23.118 13.587 21.8561 14.4306 20.7931 15.4942C19.7301 16.5578 18.8869 17.8204 18.3116 19.2101C17.7363 20.5997 17.4402 22.0891 17.4402 23.5932V255.455C17.4402 258.493 18.6463 261.406 20.7931 263.554C22.9399 265.702 25.8515 266.909 28.8876 266.909H444.789C447.825 266.909 450.737 265.702 452.883 263.554C455.03 261.406 456.236 258.493 456.236 255.455V23.5932C456.236 22.0891 455.94 20.5997 455.365 19.2101C454.789 17.8204 453.946 16.5578 452.883 15.4942C451.82 14.4306 450.558 13.587 449.17 13.0114C447.781 12.4357 446.292 12.1395 444.789 12.1395Z" fill="#3F3D56"/>
<path d="M440.889 32.3814H32.7876V262.721H440.889V32.3814Z" fill="#35A29F"/>
<path d="M236.489 26.0994C238.801 26.0994 240.675 24.2244 240.675 21.9115C240.675 19.5985 238.801 17.7235 236.489 17.7235C234.178 17.7235 232.304 19.5985 232.304 21.9115C232.304 24.2244 234.178 26.0994 236.489 26.0994Z" fill="#35A29F"/>
<path opacity="0.1" d="M324.179 262.721H32.7878V32.3817L324.179 262.721Z" fill="black"/>
<path d="M96.6432 245.484C118.308 245.484 135.871 227.912 135.871 206.234C135.871 184.557 118.308 166.985 96.6432 166.985C74.9782 166.985 57.4153 184.557 57.4153 206.234C57.4153 227.912 74.9782 245.484 96.6432 245.484Z" fill="#F2F2F2"/>
<path d="M369.832 156.605H331.711V164.575H369.832V156.605Z" fill="#3F3D56"/>
<path d="M415.918 94.5527H285.624V97.9685H415.918V94.5527Z" fill="#3F3D56"/>
<path d="M415.918 105.369H285.624V108.785H415.918V105.369Z" fill="#3F3D56"/>
<path d="M415.918 116.186H285.624V119.601H415.918V116.186Z" fill="#3F3D56"/>
<path d="M415.918 127.002H285.624V130.418H415.918V127.002Z" fill="#3F3D56"/>
<path d="M415.918 137.819H285.624V141.234H415.918V137.819Z" fill="#3F3D56"/>
<path d="M415.918 37.0545H399.987V52.9946H415.918V37.0545Z" fill="#F2F2F2"/>
<path d="M423.315 60.3954H403.97V41.0395H423.315V60.3954ZM404.811 59.5538H422.474V41.8811H404.811V59.5538Z" fill="#3F3D56"/>
<path d="M467.695 258.533H427.867V255.661C427.867 255.587 427.852 255.513 427.823 255.444C427.795 255.375 427.753 255.312 427.7 255.259C427.647 255.206 427.585 255.164 427.516 255.135C427.446 255.107 427.372 255.092 427.298 255.092H413.642C413.568 255.092 413.494 255.107 413.425 255.135C413.356 255.164 413.293 255.206 413.24 255.259C413.187 255.312 413.145 255.375 413.117 255.444C413.088 255.513 413.073 255.587 413.073 255.661V258.533H404.539V255.661C404.539 255.587 404.524 255.513 404.496 255.444C404.467 255.375 404.425 255.312 404.372 255.259C404.319 255.206 404.257 255.164 404.188 255.135C404.119 255.107 404.045 255.092 403.97 255.092H390.315C390.24 255.092 390.166 255.107 390.097 255.135C390.028 255.164 389.965 255.206 389.912 255.259C389.859 255.312 389.818 255.375 389.789 255.444C389.76 255.513 389.746 255.587 389.746 255.661V258.533H381.211V255.661C381.211 255.587 381.196 255.513 381.168 255.444C381.139 255.375 381.097 255.312 381.044 255.259C380.992 255.206 380.929 255.164 380.86 255.135C380.791 255.107 380.717 255.092 380.642 255.092H366.987C366.912 255.092 366.838 255.107 366.769 255.135C366.7 255.164 366.637 255.206 366.584 255.259C366.532 255.312 366.49 255.375 366.461 255.444C366.433 255.513 366.418 255.587 366.418 255.661V258.533H357.883V255.661C357.883 255.587 357.869 255.513 357.84 255.444C357.811 255.375 357.769 255.312 357.717 255.259C357.664 255.206 357.601 255.164 357.532 255.135C357.463 255.107 357.389 255.092 357.314 255.092H343.659C343.584 255.092 343.51 255.107 343.441 255.135C343.372 255.164 343.309 255.206 343.257 255.259C343.204 255.312 343.162 255.375 343.133 255.444C343.105 255.513 343.09 255.587 343.09 255.661V258.533H334.555V255.661C334.555 255.587 334.541 255.513 334.512 255.444C334.484 255.375 334.442 255.312 334.389 255.259C334.336 255.206 334.273 255.164 334.204 255.135C334.135 255.107 334.061 255.092 333.986 255.092H320.331C320.256 255.092 320.182 255.107 320.113 255.135C320.044 255.164 319.982 255.206 319.929 255.259C319.876 255.312 319.834 255.375 319.805 255.444C319.777 255.513 319.762 255.587 319.762 255.661V258.533H311.228V255.661C311.228 255.587 311.213 255.513 311.184 255.444C311.156 255.375 311.114 255.312 311.061 255.259C311.008 255.206 310.945 255.164 310.876 255.135C310.807 255.107 310.733 255.092 310.659 255.092H297.003C296.929 255.092 296.855 255.107 296.786 255.135C296.716 255.164 296.654 255.206 296.601 255.259C296.548 255.312 296.506 255.375 296.478 255.444C296.449 255.513 296.434 255.587 296.434 255.661V258.533H287.9V255.661C287.9 255.587 287.885 255.513 287.856 255.444C287.828 255.375 287.786 255.312 287.733 255.259C287.68 255.206 287.617 255.164 287.548 255.135C287.479 255.107 287.405 255.092 287.331 255.092H180.364C180.289 255.092 180.215 255.107 180.146 255.135C180.077 255.164 180.015 255.206 179.962 255.259C179.909 255.312 179.867 255.375 179.838 255.444C179.81 255.513 179.795 255.587 179.795 255.661V258.533H171.261V255.661C171.261 255.587 171.246 255.513 171.217 255.444C171.189 255.375 171.147 255.312 171.094 255.259C171.041 255.206 170.978 255.164 170.909 255.135C170.84 255.107 170.766 255.092 170.692 255.092H157.036C156.961 255.092 156.887 255.107 156.818 255.135C156.749 255.164 156.687 255.206 156.634 255.259C156.581 255.312 156.539 255.375 156.511 255.444C156.482 255.513 156.467 255.587 156.467 255.661V258.533H147.933V255.661C147.933 255.587 147.918 255.513 147.889 255.444C147.861 255.375 147.819 255.312 147.766 255.259C147.713 255.206 147.65 255.164 147.581 255.135C147.512 255.107 147.438 255.092 147.364 255.092H133.708C133.634 255.092 133.56 255.107 133.491 255.135C133.422 255.164 133.359 255.206 133.306 255.259C133.253 255.312 133.211 255.375 133.183 255.444C133.154 255.513 133.139 255.587 133.139 255.661V258.533H124.605V255.661C124.605 255.587 124.59 255.513 124.562 255.444C124.533 255.375 124.491 255.312 124.438 255.259C124.385 255.206 124.323 255.164 124.254 255.135C124.185 255.107 124.111 255.092 124.036 255.092H110.381C110.306 255.092 110.232 255.107 110.163 255.135C110.094 255.164 110.031 255.206 109.978 255.259C109.925 255.312 109.883 255.375 109.855 255.444C109.826 255.513 109.812 255.587 109.812 255.661V258.533H101.277V255.661C101.277 255.587 101.262 255.513 101.234 255.444C101.205 255.375 101.163 255.312 101.11 255.259C101.058 255.206 100.995 255.164 100.926 255.135C100.857 255.107 100.783 255.092 100.708 255.092H87.0527C86.978 255.092 86.904 255.107 86.8349 255.135C86.7659 255.164 86.7032 255.206 86.6503 255.259C86.5975 255.312 86.5556 255.375 86.527 255.444C86.4984 255.513 86.4837 255.587 86.4837 255.661V258.533H77.9491V255.661C77.9491 255.587 77.9344 255.513 77.9058 255.444C77.8772 255.375 77.8353 255.312 77.7825 255.259C77.7297 255.206 77.6669 255.164 77.5979 255.135C77.5289 255.107 77.4549 255.092 77.3802 255.092H63.7248C63.6501 255.092 63.5761 255.107 63.5071 255.135C63.4381 255.164 63.3753 255.206 63.3225 255.259C63.2697 255.312 63.2278 255.375 63.1992 255.444C63.1706 255.513 63.1559 255.587 63.1559 255.661V258.533H54.6213V255.661C54.6213 255.587 54.6066 255.513 54.578 255.444C54.5494 255.375 54.5075 255.312 54.4546 255.259C54.4018 255.206 54.3391 255.164 54.2701 255.135C54.201 255.107 54.127 255.092 54.0523 255.092H40.397C40.3223 255.092 40.2483 255.107 40.1793 255.135C40.1102 255.164 40.0475 255.206 39.9947 255.259C39.9418 255.312 39.8999 255.375 39.8713 255.444C39.8427 255.513 39.828 255.587 39.828 255.661V258.533H13.6553C10.0337 258.533 6.56043 259.972 3.99956 262.534C1.43869 265.097 3.45032e-06 268.572 0 272.196V278.374C1.0351e-05 281.997 1.4387 285.472 3.99957 288.035C6.56043 290.597 10.0337 292.036 13.6553 292.036H467.695C471.316 292.036 474.79 290.597 477.351 288.035C479.911 285.472 481.35 281.997 481.35 278.374V272.196C481.35 268.572 479.911 265.097 477.351 262.534C474.79 259.972 471.316 258.533 467.695 258.533Z" fill="#3F3D56"/>
<path d="M106.139 230.749C96.3611 230.749 86.8031 227.848 78.6734 222.413C70.5437 216.978 64.2074 209.253 60.4657 200.215C56.724 191.176 55.745 181.231 57.6525 171.636C59.56 162.041 64.2683 153.227 71.1821 146.31C78.0958 139.392 86.9045 134.681 96.4941 132.773C106.084 130.864 116.024 131.844 125.057 135.588C134.09 139.331 141.811 145.671 147.243 153.805C152.675 161.94 155.575 171.503 155.575 181.286C155.56 194.4 150.347 206.972 141.079 216.245C131.811 225.518 119.245 230.734 106.139 230.749ZM106.139 133.124C96.6184 133.124 87.312 135.949 79.3962 141.241C71.4804 146.533 65.3109 154.055 61.6676 162.855C58.0244 171.656 57.0712 181.339 58.9285 190.682C60.7858 200.024 65.3702 208.606 72.102 215.341C78.8338 222.077 87.4106 226.664 96.7479 228.522C106.085 230.381 115.764 229.427 124.559 225.782C133.355 222.136 140.872 215.963 146.161 208.043C151.451 200.123 154.274 190.811 154.274 181.286C154.259 168.517 149.183 156.275 140.159 147.246C131.135 138.217 118.9 133.138 106.139 133.124Z" fill="#3F3D56"/>
<path d="M547.159 21.1803H381.289V22.482H547.159V21.1803Z" fill="#3F3D56"/>
<path d="M741 364.821H264.204V366.123H741V364.821Z" fill="#3F3D56"/>
<path d="M291.198 424.698H125.328V426H291.198V424.698Z" fill="#3F3D56"/>
<path d="M324.586 357.96H306.373V376.183H324.586V357.96Z" fill="#35A29F"/>
<path d="M335.644 365.77H313.528V343.641H335.644V365.77ZM314.49 364.807H334.683V344.603H314.49V364.807Z" fill="#3F3D56"/>
<path d="M535.99 14.3184H517.777V32.5418H535.99V14.3184Z" fill="#35A29F"/>
<path d="M547.048 22.1284H524.932V0H547.048V22.1284ZM525.893 21.1663H546.086V0.962107H525.893V21.1663Z" fill="#3F3D56"/>
<path d="M719.423 357.96H701.21V376.183H719.423V357.96Z" fill="#35A29F"/>
<path d="M730.481 365.77H708.365V343.641H730.481V365.77ZM709.327 364.807H729.52V344.603H709.327V364.807Z" fill="#3F3D56"/>
<path d="M687.662 150.967H686.114V108.557C686.114 105.334 685.48 102.142 684.247 99.164C683.014 96.186 681.207 93.4802 678.929 91.2009C676.651 88.9216 673.947 87.1136 670.97 85.8801C667.994 84.6466 664.804 84.0117 661.582 84.0117H571.782C568.561 84.0117 565.371 84.6466 562.394 85.8801C559.418 87.1136 556.714 88.9216 554.436 91.2009C552.158 93.4802 550.351 96.186 549.118 99.164C547.885 102.142 547.251 105.334 547.251 108.557V341.219C547.251 344.442 547.885 347.634 549.118 350.612C550.351 353.59 552.158 356.296 554.436 358.575C556.714 360.854 559.418 362.662 562.394 363.896C565.371 365.129 568.561 365.764 571.782 365.764H661.583C664.804 365.764 667.994 365.129 670.97 363.896C673.947 362.662 676.651 360.854 678.929 358.575C681.207 356.296 683.014 353.59 684.247 350.612C685.48 347.634 686.114 344.442 686.114 341.219V181.154H687.662V150.967Z" fill="#3F3D56"/>
<path d="M680.89 110V342.322C680.891 347.184 678.962 351.847 675.526 355.285C672.091 358.723 667.432 360.655 662.573 360.656H572.339C567.48 360.655 562.821 358.723 559.386 355.285C555.95 351.847 554.021 347.184 554.022 342.322V110C554.022 105.139 555.952 100.478 559.387 97.0409C562.823 93.6039 567.481 91.6728 572.339 91.6723H583.287C582.748 92.9946 582.542 94.4291 582.688 95.8495C582.834 97.2699 583.327 98.6327 584.123 99.8177C584.919 101.003 585.995 101.974 587.254 102.645C588.514 103.316 589.919 103.667 591.346 103.667H642.792C644.219 103.667 645.624 103.316 646.884 102.645C648.143 101.974 649.219 101.003 650.015 99.8177C650.811 98.6327 651.304 97.2699 651.45 95.8495C651.595 94.4291 651.39 92.9945 650.851 91.6723H662.573C667.431 91.6728 672.089 93.6039 675.525 97.0409C678.96 100.478 680.89 105.139 680.89 110Z" fill="#35A29F"/>
<path d="M630.896 244.856H604.016V252.826H630.896V244.856Z" fill="#3F3D56"/>
<path d="M663.393 182.803H571.52V186.219H663.393V182.803Z" fill="#3F3D56"/>
<path d="M663.393 193.62H571.52V197.036H663.393V193.62Z" fill="#3F3D56"/>
<path d="M663.393 204.436H571.52V207.852H663.393V204.436Z" fill="#3F3D56"/>
<path d="M663.393 215.253H571.52V218.669H663.393V215.253Z" fill="#3F3D56"/>
<path d="M663.393 226.069H571.52V229.485H663.393V226.069Z" fill="#3F3D56"/>
<path d="M620.665 137.443H604.734V153.383H620.665V137.443Z" fill="#F2F2F2"/>
<path d="M610.833 141.429V160.785H630.178V141.429H610.833ZM629.339 159.945H611.672V142.268H629.339V159.945Z" fill="#3F3D56"/>
<path opacity="0.1" d="M680.89 317.512V342.322C680.891 347.184 678.962 351.847 675.526 355.285C672.091 358.723 667.432 360.655 662.573 360.656H572.339C567.48 360.655 562.821 358.723 559.386 355.285C555.95 351.847 554.021 347.184 554.022 342.322V217.225L630.043 277.317L631.344 278.345L645.485 289.52L646.805 290.568L680.89 317.512Z" fill="black"/>
<path d="M609.65 353.127C625.41 353.127 638.185 340.344 638.185 324.576C638.185 308.808 625.41 296.025 609.65 296.025C593.891 296.025 581.116 308.808 581.116 324.576C581.116 340.344 593.891 353.127 609.65 353.127Z" fill="#F2F2F2"/>
<path d="M208.263 426C197.07 426 186.129 422.679 176.822 416.457C167.516 410.236 160.263 401.392 155.979 391.046C151.696 380.699 150.575 369.315 152.759 358.331C154.943 347.347 160.332 337.258 168.247 329.339C176.161 321.42 186.245 316.027 197.222 313.843C208.2 311.658 219.579 312.779 229.919 317.065C240.26 321.35 249.098 328.608 255.317 337.919C261.535 347.231 264.854 358.178 264.854 369.377C264.837 384.389 258.869 398.782 248.26 409.397C237.651 420.012 223.267 425.983 208.263 426ZM208.263 314.056C197.327 314.056 186.638 317.301 177.545 323.38C168.453 329.458 161.366 338.098 157.181 348.207C152.997 358.315 151.902 369.439 154.035 380.17C156.168 390.901 161.434 400.758 169.167 408.495C176.899 416.232 186.751 421.501 197.476 423.635C208.202 425.77 219.319 424.674 229.421 420.487C239.524 416.3 248.16 409.21 254.235 400.112C260.31 391.015 263.553 380.319 263.553 369.377C263.536 354.71 257.706 340.649 247.341 330.278C236.975 319.907 222.922 314.073 208.263 314.056Z" fill="#3F3D56"/>
<path d="M618.061 346.598C610.985 346.598 604.068 344.499 598.185 340.565C592.301 336.632 587.716 331.042 585.008 324.501C582.3 317.96 581.592 310.762 582.972 303.819C584.353 296.875 587.76 290.497 592.763 285.491C597.767 280.484 604.141 277.075 611.081 275.694C618.021 274.313 625.215 275.022 631.752 277.731C638.289 280.44 643.876 285.028 647.808 290.915C651.739 296.802 653.837 303.722 653.837 310.802C653.826 320.293 650.053 329.391 643.347 336.102C636.64 342.813 627.546 346.587 618.061 346.598ZM618.061 276.308C611.242 276.308 604.577 278.331 598.908 282.121C593.238 285.911 588.819 291.299 586.21 297.602C583.601 303.905 582.918 310.84 584.248 317.532C585.578 324.223 588.862 330.369 593.683 335.193C598.505 340.017 604.648 343.303 611.335 344.634C618.023 345.965 624.954 345.281 631.254 342.671C637.553 340.06 642.938 335.639 646.726 329.966C650.514 324.294 652.536 317.624 652.536 310.802C652.526 301.657 648.89 292.889 642.427 286.422C635.964 279.956 627.201 276.318 618.061 276.308Z" fill="#3F3D56"/>
</g>
<defs>
<clipPath id="clip0_8_33">
<rect width="741" height="426" fill="white"/>
</clipPath>
</defs>
</svg>
